<svg xmlns="http://www.w3.org/2000/svg" width="14" height="12.687" viewBox="0 0 14 12.687">
  <path id="house" d="M.724,9.455,7,4.017l6.275,5.439a.438.438,0,1,0,.574-.661L7.287,3.107a.437.437,0,0,0-.573,0L4.375,5.133V4.312a.875.875,0,0,0-1.75,0V6.649L.15,8.794a.438.438,0,1,0,.574.661ZM5.25,11.312h3.5v4.375h2.625a.875.875,0,0,0,.875-.875V10.524a.873.873,0,0,0-.32-.676L7.554,6.261a.873.873,0,0,0-1.109,0L2.07,9.847a.872.872,0,0,0-.32.676v4.288a.875.875,0,0,0,.875.875H5.25Z" transform="translate(0 -3)" fill="#f70b0f"/>
</svg>
