<svg xmlns="http://www.w3.org/2000/svg" xmlns:xlink="http://www.w3.org/1999/xlink" width="24" height="24" viewBox="0 0 24 24">
  <defs>
    <radialGradient id="radial-gradient" cx="0.266" cy="1.077" r="0.991" gradientUnits="objectBoundingBox">
      <stop offset="0" stop-color="#fd5"/>
      <stop offset="0.1" stop-color="#fd5"/>
      <stop offset="0.5" stop-color="#ff543e"/>
      <stop offset="1" stop-color="#c837ab"/>
    </radialGradient>
    <radialGradient id="radial-gradient-2" cx="-0.168" cy="0.072" r="0.443" gradientUnits="objectBoundingBox">
      <stop offset="0" stop-color="#3771c8"/>
      <stop offset="0.128" stop-color="#3771c8"/>
      <stop offset="1" stop-color="#60f" stop-opacity="0"/>
    </radialGradient>
  </defs>
  <g id="Group_564" data-name="Group 564" transform="translate(-911 -589)">
    <circle id="Ellipse_37" data-name="Ellipse 37" cx="12" cy="12" r="12" transform="translate(911 589)" fill="#fff"/>
    <g id="instagram-color-icon" transform="translate(914.999 593)">
      <path id="Path_401" data-name="Path 401" d="M7,0C4.076,0,3.222,0,3.056.017A3.473,3.473,0,0,0,1.676.364a2.794,2.794,0,0,0-.8.589,3,3,0,0,0-.811,1.7A12.633,12.633,0,0,0,0,4.721C0,5.278,0,6.012,0,7c0,2.92,0,3.774.017,3.94a3.516,3.516,0,0,0,.334,1.352,2.949,2.949,0,0,0,1.911,1.561,4.966,4.966,0,0,0,1.016.135c.173.008,1.94.013,3.708.013s3.536,0,3.7-.011a4.782,4.782,0,0,0,1.053-.138,2.931,2.931,0,0,0,1.911-1.564,3.458,3.458,0,0,0,.33-1.326c.009-.121.013-2.043.013-3.963s0-3.84-.014-3.96a3.419,3.419,0,0,0-.337-1.339,2.774,2.774,0,0,0-.6-.821,3.022,3.022,0,0,0-1.7-.809A12.615,12.615,0,0,0,9.277,0Z" transform="translate(1.004 1)" fill="url(#radial-gradient)"/>
      <path id="Path_402" data-name="Path 402" d="M7,0C4.076,0,3.222,0,3.056.017A3.473,3.473,0,0,0,1.676.364a2.794,2.794,0,0,0-.8.589,3,3,0,0,0-.811,1.7A12.633,12.633,0,0,0,0,4.721C0,5.278,0,6.012,0,7c0,2.92,0,3.774.017,3.94a3.516,3.516,0,0,0,.334,1.352,2.949,2.949,0,0,0,1.911,1.561,4.966,4.966,0,0,0,1.016.135c.173.008,1.94.013,3.708.013s3.536,0,3.7-.011a4.782,4.782,0,0,0,1.053-.138,2.931,2.931,0,0,0,1.911-1.564,3.458,3.458,0,0,0,.33-1.326c.009-.121.013-2.043.013-3.963s0-3.84-.014-3.96a3.419,3.419,0,0,0-.337-1.339,2.774,2.774,0,0,0-.6-.821,3.022,3.022,0,0,0-1.7-.809A12.615,12.615,0,0,0,9.277,0Z" transform="translate(1.004 1)" fill="url(#radial-gradient-2)"/>
      <path id="Path_403" data-name="Path 403" d="M23.163,18c-1.4,0-1.578.006-2.129.031a3.788,3.788,0,0,0-1.253.24,2.641,2.641,0,0,0-1.51,1.51,3.771,3.771,0,0,0-.24,1.253c-.025.551-.031.727-.031,2.129s.006,1.577.031,2.128a3.794,3.794,0,0,0,.24,1.253,2.642,2.642,0,0,0,1.51,1.51,3.792,3.792,0,0,0,1.253.24c.551.025.726.031,2.128.031s1.578-.006,2.128-.031a3.794,3.794,0,0,0,1.254-.24,2.645,2.645,0,0,0,1.51-1.51,3.827,3.827,0,0,0,.24-1.253c.025-.551.031-.726.031-2.128s-.006-1.578-.031-2.129a3.825,3.825,0,0,0-.24-1.253,2.641,2.641,0,0,0-1.51-1.51,3.8,3.8,0,0,0-1.254-.24c-.551-.025-.726-.031-2.128-.031Zm-.463.93h.463c1.378,0,1.542,0,2.086.03a2.858,2.858,0,0,1,.958.178,1.711,1.711,0,0,1,.98.98,2.852,2.852,0,0,1,.178.958c.025.544.03.708.03,2.085s-.005,1.541-.03,2.085a2.855,2.855,0,0,1-.178.958,1.712,1.712,0,0,1-.98.979,2.848,2.848,0,0,1-.958.178c-.544.025-.708.03-2.086.03s-1.542-.005-2.086-.03a2.864,2.864,0,0,1-.959-.178,1.71,1.71,0,0,1-.98-.979,2.853,2.853,0,0,1-.178-.958c-.025-.544-.03-.708-.03-2.086s0-1.541.03-2.085a2.858,2.858,0,0,1,.178-.958,1.711,1.711,0,0,1,.98-.98,2.852,2.852,0,0,1,.959-.178c.476-.022.661-.028,1.623-.029Zm3.219.857a.619.619,0,1,0,.619.619.619.619,0,0,0-.619-.619Zm-2.756.724a2.651,2.651,0,1,0,2.651,2.651,2.651,2.651,0,0,0-2.651-2.651Zm0,.93a1.721,1.721,0,1,1-1.721,1.721A1.721,1.721,0,0,1,23.163,21.442Z" transform="translate(-15.163 -15.164)" fill="#fff"/>
    </g>
  </g>
</svg>
