<svg xmlns="http://www.w3.org/2000/svg" width="24" height="24" viewBox="0 0 24 24">
  <g id="Group_563" data-name="Group 563" transform="translate(-885 -583)">
    <circle id="Ellipse_36" data-name="Ellipse 36" cx="12" cy="12" r="12" transform="translate(885 583)" fill="#fff"/>
    <path id="linkedin_2_" data-name="linkedin (2)" d="M0,6.554A1.455,1.455,0,0,1,.473,5.439,1.735,1.735,0,0,1,1.7,5a1.683,1.683,0,0,1,1.2.432,1.524,1.524,0,0,1,.473,1.162,1.423,1.423,0,0,1-.459,1.081,1.738,1.738,0,0,1-1.243.446H1.662a1.654,1.654,0,0,1-1.2-.446A1.5,1.5,0,0,1,0,6.554ZM.176,18.378V9.351h3v9.027Zm4.662,0h3V13.338a1.759,1.759,0,0,1,.682-1.507,1.468,1.468,0,0,1,.966-.318Q11,11.514,11,13.554v4.824h3V13.2a4.349,4.349,0,0,0-.946-3.034,3.227,3.227,0,0,0-2.5-1.034,3.067,3.067,0,0,0-2.716,1.5v.027H7.824l.014-.027V9.351h-3q.027.432.027,2.689T4.838,18.378Z" transform="translate(890 583)" fill="#0077b5"/>
  </g>
</svg>
