<svg xmlns="http://www.w3.org/2000/svg" width="14" height="14.028" viewBox="0 0 14 14.028">
  <path id="phone" d="M16.111,12.5v2.112a1.408,1.408,0,0,1-1.535,1.408A13.93,13.93,0,0,1,8.5,13.861,13.726,13.726,0,0,1,4.279,9.637a13.93,13.93,0,0,1-2.161-6.1A1.408,1.408,0,0,1,3.518,2H5.63A1.408,1.408,0,0,1,7.038,3.211a9.038,9.038,0,0,0,.493,1.978,1.408,1.408,0,0,1-.317,1.485l-.894.894a11.263,11.263,0,0,0,4.223,4.223l.894-.894a1.408,1.408,0,0,1,1.485-.317,9.038,9.038,0,0,0,1.978.493A1.408,1.408,0,0,1,16.111,12.5Z" transform="translate(-2.112 -2)" fill="#f70b0f"/>
</svg>
