<svg xmlns="http://www.w3.org/2000/svg" width="24" height="24" viewBox="0 0 24 24">
  <g id="Group_567" data-name="Group 567" transform="translate(-840 -583)">
    <circle id="Ellipse_35" data-name="Ellipse 35" cx="12" cy="12" r="12" transform="translate(840 583)" fill="#fff"/>
    <path id="twitter_1_" data-name="twitter (1)" d="M14,3.539a5.412,5.412,0,0,1-1.654.518,3.222,3.222,0,0,0,1.263-1.813,5.322,5.322,0,0,1-1.82.794,2.626,2.626,0,0,0-3.15-.808A3.306,3.306,0,0,0,6.824,5.281a3.843,3.843,0,0,0,.066.748A7.836,7.836,0,0,1,.975,2.6a3.579,3.579,0,0,0,.882,4.384,2.569,2.569,0,0,1-1.3-.4v.036a3.22,3.22,0,0,0,2.3,3.223,2.528,2.528,0,0,1-.753.108,2.23,2.23,0,0,1-.543-.056,2.975,2.975,0,0,0,2.682,2.285,5.324,5.324,0,0,1-3.559,1.4A4.713,4.713,0,0,1,0,13.528,7.363,7.363,0,0,0,4.4,15c5.281,0,8.169-5,8.169-9.334,0-.145,0-.285-.011-.424A6.245,6.245,0,0,0,14,3.539Z" transform="translate(845 587)" fill="#1da1f2"/>
  </g>
</svg>
