<svg xmlns="http://www.w3.org/2000/svg" width="22" height="22" viewBox="0 0 22 22">
  <path id="icons8-whatsapp" d="M19,8A10.985,10.985,0,0,0,9.509,24.542L8.095,29.821l5.524-1.232A11,11,0,1,0,19,8Zm0,.647a10.353,10.353,0,0,1,0,20.706,10.161,10.161,0,0,1-5.276-1.45L9,28.954l1.2-4.5A10.191,10.191,0,0,1,8.647,19,10.382,10.382,0,0,1,19,8.647Zm-4.011,4.885a1.069,1.069,0,0,0-.777.363A3.266,3.266,0,0,0,13.2,16.317a5.626,5.626,0,0,0,1.183,3A11.9,11.9,0,0,0,19.342,23.7c2.448.964,2.949.773,3.486.723a2.924,2.924,0,0,0,1.959-1.378,2.41,2.41,0,0,0,.167-1.383c-.074-.118-.264-.189-.555-.335s-1.719-.85-1.987-.945-.459-.146-.65.145-.749.946-.921,1.136-.336.218-.627.072A7.878,7.878,0,0,1,17.878,20.3a8.684,8.684,0,0,1-1.613-2.008c-.168-.29-.018-.45.128-.6.132-.127.29-.336.436-.5a2.138,2.138,0,0,0,.287-.487.525.525,0,0,0-.023-.508c-.072-.146-.636-1.581-.895-2.154-.217-.481-.446-.5-.655-.5C15.374,13.531,15.179,13.532,14.989,13.532Z" transform="translate(-8 -8)"/>
</svg>
