<svg xmlns="http://www.w3.org/2000/svg" width="24" height="24" viewBox="0 0 24 24">
  <g id="Group_565" data-name="Group 565" transform="translate(-944 -590)">
    <circle id="Ellipse_38" data-name="Ellipse 38" cx="12" cy="12" r="12" transform="translate(944 590)" fill="#fff"/>
    <path id="youtube-color-icon" d="M14.837,49437.43a3.454,3.454,0,0,0-.637-1.59,2.315,2.315,0,0,0-1.6-.676C10.359,49435,7,49435,7,49435H6.993s-3.359,0-5.6.164a2.3,2.3,0,0,0-1.6.676,3.433,3.433,0,0,0-.634,1.59,24.273,24.273,0,0,0-.159,2.59v1.211a24.409,24.409,0,0,0,.159,2.594,3.464,3.464,0,0,0,.634,1.586,2.725,2.725,0,0,0,1.766.688c1.281.121,5.441.156,5.441.156s3.363-.008,5.6-.164a2.3,2.3,0,0,0,1.6-.68,3.441,3.441,0,0,0,.637-1.586,24.38,24.38,0,0,0,.159-2.594v-1.211a24.9,24.9,0,0,0-.162-2.594v0h0Zm-9.495,5.273v-4.5l4.322,2.258Z" transform="translate(949 -48839)" fill="red" fill-rule="evenodd"/>
  </g>
</svg>
